<?xml version="1.0" encoding="utf-8"?>
<!-- Generator: Adobe Illustrator 17.1.0, SVG Export Plug-In . SVG Version: 6.00 Build 0)  -->
<!DOCTYPE svg PUBLIC "-//W3C//DTD SVG 1.0//EN" "http://www.w3.org/TR/2001/REC-SVG-20010904/DTD/svg10.dtd">
<svg version="1.0" id="Layer_1" xmlns="http://www.w3.org/2000/svg" xmlns:xlink="http://www.w3.org/1999/xlink" x="0px" y="0px"
	 viewBox="0 0 146.5 146.3" style="enable-background:new 0 0 146.5 146.3;" xml:space="preserve">
<style type="text/css">
	.Drop_x0020_Shadow{fill:none;}
	.Round_x0020_Corners_x0020_2_x0020_pt{fill:#FFFFFF;stroke:#000000;stroke-miterlimit:10;}
	.Live_x0020_Reflect_x0020_X{fill:none;}
	.Bevel_x0020_Soft{fill:url(#SVGID_1_);}
	.Dusk{fill:#FFFFFF;}
	.Foliage_GS{fill:#FFDD00;}
	.Pompadour_GS{fill-rule:evenodd;clip-rule:evenodd;fill:#44ADE2;}
	.st0{fill:none;stroke:#383938;stroke-width:1.5;stroke-miterlimit:10;}
	.st1{fill:#383938;}
	.st2{fill:#FFFFFF;stroke:#383938;stroke-width:1.5;stroke-miterlimit:10;}
</style>
<linearGradient id="SVGID_1_" gradientUnits="userSpaceOnUse" x1="-224.6667" y1="-348.1667" x2="-223.9596" y2="-347.4596">
	<stop  offset="0" style="stop-color:#DEDFE3"/>
	<stop  offset="0.1738" style="stop-color:#D8D9DD"/>
	<stop  offset="0.352" style="stop-color:#C9CACD"/>
	<stop  offset="0.5323" style="stop-color:#B4B5B8"/>
	<stop  offset="0.7139" style="stop-color:#989A9C"/>
	<stop  offset="0.8949" style="stop-color:#797C7E"/>
	<stop  offset="1" style="stop-color:#656B6C"/>
</linearGradient>
<g>
	<path class="st0" d="M106.2,48.4c-9.1-9.1-23.8-9.1-32.8,0l0,0c-9.1-9.1-23.8-9.1-32.8,0c-9.1,9.1-9.1,23.8,0,32.8l32.8,32.8
		L84,103.4l22.2-22.2l0,0C115.2,72.2,115.2,57.5,106.2,48.4z"/>
	<circle class="st1" cx="125" cy="67.2" r="2.3"/>
	<circle class="st1" cx="87.3" cy="29.5" r="2.3"/>
	<line class="st0" x1="87.3" y1="29.5" x2="125" y2="67.2"/>
	<circle class="st2" cx="106.2" cy="48.4" r="2.9"/>
	<circle class="st2" cx="73.3" cy="48.4" r="2.9"/>
	<circle class="st2" cx="106.2" cy="81.2" r="2.9"/>
	<circle class="st0" cx="73.3" cy="73" r="71.7"/>
</g>
</svg>
