<?xml version="1.0" encoding="utf-8"?>
<!-- Generator: Adobe Illustrator 17.1.0, SVG Export Plug-In . SVG Version: 6.00 Build 0)  -->
<!DOCTYPE svg PUBLIC "-//W3C//DTD SVG 1.0//EN" "http://www.w3.org/TR/2001/REC-SVG-20010904/DTD/svg10.dtd">
<svg version="1.0" id="Layer_1" xmlns="http://www.w3.org/2000/svg" xmlns:xlink="http://www.w3.org/1999/xlink" x="0px" y="0px"
	 viewBox="0 0 530.7 296" style="enable-background:new 0 0 530.7 296;" xml:space="preserve">
<style type="text/css">
	.Drop_x0020_Shadow{fill:none;}
	.Round_x0020_Corners_x0020_2_x0020_pt{fill:#FFFFFF;stroke:#000000;stroke-miterlimit:10;}
	.Live_x0020_Reflect_x0020_X{fill:none;}
	.Bevel_x0020_Soft{fill:url(#SVGID_1_);}
	.Dusk{fill:#FFFFFF;}
	.Foliage_GS{fill:#FFDD00;}
	.Pompadour_GS{fill-rule:evenodd;clip-rule:evenodd;fill:#44ADE2;}
	.st0{fill:#383938;}
	.st1{fill:none;stroke:#383938;stroke-width:2.7677;stroke-miterlimit:10;}
	.st2{fill:#979797;}
	.st3{fill:#C79256;}
	.st4{opacity:0.83;}
	.st5{clip-path:url(#SVGID_3_);}
	.st6{clip-path:url(#SVGID_5_);}
	.st7{clip-path:url(#SVGID_7_);}
	.st8{clip-path:url(#SVGID_9_);}
	.st9{clip-path:url(#SVGID_11_);}
	.st10{clip-path:url(#SVGID_13_);}
	.st11{clip-path:url(#SVGID_15_);}
	.st12{opacity:0.9;}
	.st13{fill:#010101;}
</style>
<linearGradient id="SVGID_1_" gradientUnits="userSpaceOnUse" x1="23.3333" y1="-285" x2="24.0404" y2="-284.2929">
	<stop  offset="0" style="stop-color:#DEDFE3"/>
	<stop  offset="0.1738" style="stop-color:#D8D9DD"/>
	<stop  offset="0.352" style="stop-color:#C9CACD"/>
	<stop  offset="0.5323" style="stop-color:#B4B5B8"/>
	<stop  offset="0.7139" style="stop-color:#989A9C"/>
	<stop  offset="0.8949" style="stop-color:#797C7E"/>
	<stop  offset="1" style="stop-color:#656B6C"/>
</linearGradient>
<g>
	<g>
		<g>
			<path class="st0" d="M84.1,471.8v-43.3h32v9.8H95.3v33.5H84.1z"/>
			<path class="st0" d="M147.6,472.7c-6.6,0-12-2.2-16.3-6.6c-4.3-4.4-6.5-9.7-6.5-16c0-6.3,2.2-11.6,6.5-16
				c4.3-4.4,9.8-6.6,16.3-6.6c6.6,0,12,2.2,16.3,6.6c4.3,4.4,6.5,9.7,6.5,16c0,6.3-2.2,11.6-6.5,16
				C159.6,470.5,154.2,472.7,147.6,472.7z M147.6,462.4c3.3,0,5.9-1.2,8.1-3.5c2.2-2.3,3.3-5.3,3.3-8.8c0-3.5-1.1-6.5-3.3-8.8
				c-2.2-2.3-4.8-3.5-8.1-3.5s-6,1.2-8.2,3.5c-2.2,2.3-3.2,5.3-3.2,8.8c0,3.5,1.1,6.5,3.2,8.8C141.6,461.3,144.3,462.4,147.6,462.4z
				"/>
			<path class="st0" d="M183.6,471.8v-43.3h19.3c4.8,0,8.7,1.2,11.5,3.8c2.8,2.5,4.3,5.8,4.3,9.8c0,4-1.4,7.3-4.3,9.8
				c-2.8,2.5-6.7,3.8-11.5,3.8h-8.2v16.2H183.6z M194.7,446.5h7.4c3.2,0,5.3-1.6,5.3-4.3c0-2.7-2-4.3-5.3-4.3h-7.4V446.5z"/>
			<path class="st0" d="M224.4,471.8l17.3-22.3l-15.1-21h13.7l12.1,17.4v-17.4h11.1v17.4l12.1-17.4h13.7l-15.1,21l17.3,22.3h-14.5
				l-13.6-17.7v17.7h-11.1v-17.7l-13.6,17.7H224.4z"/>
			<path class="st0" d="M302.4,471v-9.5c1.7,0.9,3.6,1.4,5.7,1.4c3.2,0,4.8-1.1,6.6-4.6l-16.3-29.8h12.3l9.5,18.8l8.3-18.8h11.8
				l-15.9,33.8c-2,4.3-4.8,7.4-7.5,8.7c-2.7,1.3-4.7,1.7-6.7,1.7C307,472.7,304.4,472.1,302.4,471z"/>
			<path class="st0" d="M353,466.4c-4.6-4.2-6.9-9.6-6.9-16.2c0-6.6,2.3-12,6.8-16.2c4.6-4.2,10.3-6.3,17.3-6.3
				c4.1,0,7.8,0.8,11.2,2.5v11c-3.4-2.1-7.1-3.2-11.1-3.2c-3.7,0-6.7,1.2-9.1,3.5c-2.4,2.3-3.7,5.3-3.7,8.8c0,3.6,1.2,6.6,3.7,8.8
				c2.5,2.3,5.7,3.4,9.5,3.4c4.6,0,8.4-1.2,11.4-3.5v11c-3.5,1.8-7.5,2.7-11.9,2.7C363.3,472.7,357.5,470.6,353,466.4z"/>
			<path class="st0" d="M395.2,471.8v-43.3h11.1v13.4h7.8c5.3,0,9.5,1.4,12.6,4.2c3.2,2.8,4.8,6.4,4.8,10.8c0,4.4-1.5,8-4.7,10.8
				c-3.2,2.8-7.4,4.1-12.7,4.1H395.2z M406.4,462.3h7.1c4.2,0,6.8-2.2,6.8-5.6c0-3.5-2.6-5.8-6.8-5.8h-7.1V462.3z"/>
			<path class="st0" d="M123.6,546.1v-33.5h-13v-9.8h37.2v9.8h-13.1v33.5H123.6z"/>
			<path class="st0" d="M178.3,547c-6.6,0-12-2.2-16.3-6.6c-4.3-4.4-6.5-9.7-6.5-16c0-6.3,2.2-11.6,6.5-16c4.3-4.4,9.8-6.6,16.3-6.6
				c6.6,0,12,2.2,16.3,6.6c4.3,4.4,6.5,9.7,6.5,16c0,6.3-2.2,11.6-6.5,16C190.3,544.8,184.8,547,178.3,547z M178.3,536.7
				c3.3,0,5.9-1.2,8.1-3.5c2.2-2.3,3.3-5.3,3.3-8.8c0-3.5-1.1-6.5-3.3-8.8c-2.2-2.3-4.8-3.5-8.1-3.5c-3.3,0-6,1.2-8.2,3.5
				c-2.2,2.3-3.2,5.3-3.2,8.8c0,3.5,1.1,6.5,3.2,8.8C172.3,535.5,175,536.7,178.3,536.7z"/>
			<path class="st0" d="M214.2,546.1v-43.3h32.4v9.5h-21.2v4.7h8c5.1,0,9.3,1.4,12.3,4.1c3,2.7,4.6,6.3,4.6,10.5
				c0,4.3-1.5,7.8-4.6,10.5c-3,2.7-7.2,4-12.3,4H214.2z M225.4,536.6h7.2c4,0,6.5-2,6.5-5.3c0-3.4-2.5-5.5-6.5-5.5h-7.2V536.6z"/>
			<path class="st0" d="M283.3,547c-6.6,0-12-2.2-16.3-6.6c-4.3-4.4-6.5-9.7-6.5-16c0-6.3,2.2-11.6,6.5-16c4.3-4.4,9.8-6.6,16.3-6.6
				c6.6,0,12,2.2,16.3,6.6c4.3,4.4,6.5,9.7,6.5,16c0,6.3-2.2,11.6-6.5,16C295.3,544.8,289.8,547,283.3,547z M283.3,536.7
				c3.3,0,5.9-1.2,8.1-3.5c2.2-2.3,3.3-5.3,3.3-8.8c0-3.5-1.1-6.5-3.3-8.8c-2.2-2.3-4.8-3.5-8.1-3.5c-3.3,0-6,1.2-8.2,3.5
				c-2.2,2.3-3.2,5.3-3.2,8.8c0,3.5,1.1,6.5,3.2,8.8C277.3,535.5,280,536.7,283.3,536.7z"/>
			<path class="st0" d="M319.2,546.1v-43.3h11.1v24.4l17.9-24.4h9.7v43.3h-11.1v-24.7l-18.2,24.7H319.2z M334.3,489.7
				c0.1,2.4,1.6,3.9,4.1,3.9c2.5,0,4.1-1.5,4.1-3.9h7.6c-0.1,3.4-1.2,6.1-3.4,8c-2.2,1.9-5,2.9-8.3,2.9c-3.3,0-6.1-1-8.4-2.9
				c-2.2-1.9-3.3-4.6-3.3-8H334.3z"/>
			<path class="st0" d="M369.6,555.5l5.6-20.3h11.1l-8,20.3H369.6z"/>
			<path class="st0" d="M117.5,614.9c-4.6-4.2-6.9-9.6-6.9-16.2c0-6.6,2.3-12,6.8-16.2c4.6-4.2,10.3-6.3,17.3-6.3
				c4.1,0,7.8,0.8,11.2,2.5v11c-3.4-2.1-7.1-3.2-11.1-3.2c-3.7,0-6.7,1.2-9.1,3.5c-2.4,2.3-3.7,5.3-3.7,8.8c0,3.6,1.2,6.6,3.7,8.8
				c2.5,2.3,5.7,3.4,9.5,3.4c4.6,0,8.4-1.2,11.4-3.5v11c-3.5,1.8-7.5,2.7-11.9,2.7C127.8,621.2,122.1,619.1,117.5,614.9z"/>
			<path class="st0" d="M159.8,620.4V577h11.1v13.4h6.4c5.3,0,9.5,1.4,12.6,4.2c3.2,2.8,4.8,6.4,4.8,10.8c0,4.4-1.5,8-4.7,10.8
				c-3.2,2.8-7.4,4.1-12.7,4.1H159.8z M170.9,610.8h5.7c4.2,0,6.8-2.2,6.8-5.6c0-3.5-2.6-5.8-6.8-5.8h-5.7V610.8z M199.1,620.4V577
				h11.1v43.3H199.1z"/>
			<path class="st0" d="M224.7,620.4V577h11.1v15.4h16.3V577h11.1v43.3h-11.1v-18h-16.3v18H224.7z"/>
			<path class="st0" d="M299.3,621.2c-6.6,0-12-2.2-16.3-6.6c-4.3-4.4-6.5-9.7-6.5-16c0-6.3,2.2-11.6,6.5-16
				c4.3-4.4,9.8-6.6,16.3-6.6c6.6,0,12,2.2,16.3,6.6c4.3,4.4,6.5,9.7,6.5,16c0,6.3-2.2,11.6-6.5,16
				C311.3,619.1,305.9,621.2,299.3,621.2z M299.3,611c3.3,0,5.9-1.2,8.1-3.5c2.2-2.3,3.3-5.3,3.3-8.8c0-3.5-1.1-6.5-3.3-8.8
				c-2.2-2.3-4.8-3.5-8.1-3.5c-3.3,0-6,1.2-8.2,3.5c-2.2,2.3-3.2,5.3-3.2,8.8c0,3.5,1.1,6.5,3.2,8.8C293.3,609.8,296,611,299.3,611z
				"/>
			<path class="st0" d="M335.3,620.4V577h11.1v16.5l14-16.5h13.4L357.1,597l19.9,23.4h-13.6l-17-19.2v19.2H335.3z"/>
			<path class="st0" d="M389,605.4l-2.5-28.3h15l-2.5,28.3H389z M393.9,608.2c3.7,0,6.5,2.9,6.5,6.6c0,1.8-0.6,3.3-1.9,4.6
				c-1.2,1.3-2.8,1.9-4.6,1.9c-1.8,0-3.3-0.6-4.6-1.9c-1.2-1.3-1.9-2.8-1.9-4.6C387.4,611.1,390.3,608.2,393.9,608.2z"/>
		</g>
		<polygon class="st1" points="148.1,450 283.9,524.8 299.9,598.7 178.4,526 		"/>
	</g>
	<g>
		<circle class="st0" cx="148.1" cy="450.1" r="4.9"/>
		<circle class="st0" cx="178.4" cy="525.3" r="4.9"/>
		<circle class="st0" cx="283.9" cy="524.8" r="4.9"/>
		<circle class="st0" cx="299.9" cy="598.8" r="4.9"/>
	</g>
</g>
<g>
	<g>
		<path class="st0" d="M134-155.3c0,2.8-0.6,5.4-1.7,7.6c-1.1,2.2-2.7,4-4.6,5.4c-1.9,1.4-4.1,2.5-6.4,3.2c-2.3,0.7-4.8,1-7.4,1
			h-6.1v16.5c0,0.9,0.1,1.7,0.4,2.4c0.3,0.7,0.9,1.2,1.8,1.6c0.5,0.2,1.3,0.3,2.4,0.5c1.2,0.2,2.2,0.2,3.2,0.3v2.7H92.2v-2.7
			c0.6-0.1,1.5-0.1,2.7-0.3c1.2-0.1,2-0.3,2.4-0.5c0.8-0.3,1.3-0.8,1.7-1.5c0.3-0.6,0.5-1.5,0.5-2.5V-161c0-0.9-0.1-1.7-0.4-2.4
			c-0.3-0.7-0.9-1.3-1.8-1.6c-1-0.3-1.9-0.6-2.9-0.7c-1-0.1-1.8-0.2-2.5-0.3v-2.7h24.9c5.1,0,9.2,1.2,12.4,3.7
			C132.4-162.6,134-159.4,134-155.3z M122.3-146c0.9-1.2,1.4-2.5,1.7-3.8c0.3-1.3,0.4-2.5,0.4-3.6c0-1.5-0.2-2.9-0.5-4.5
			c-0.3-1.5-0.9-2.8-1.8-4c-0.9-1.2-2.1-2.1-3.5-2.8c-1.5-0.7-3.3-1-5.5-1h-5.4v24.1h3.9c2.8,0,5-0.4,6.8-1.3
			C120.1-143.6,121.4-144.7,122.3-146z"/>
		<path class="st0" d="M196-130.3l-1,16.1h-45.3v-2.7c0.8-0.1,1.8-0.2,3.1-0.3c1.3-0.2,2.1-0.3,2.5-0.5c0.8-0.4,1.4-0.9,1.7-1.5
			c0.3-0.6,0.5-1.4,0.5-2.3v-39.2c0-0.8-0.1-1.6-0.4-2.3c-0.3-0.7-0.9-1.2-1.8-1.6c-0.7-0.3-1.6-0.6-2.8-0.9
			c-1.2-0.3-2.1-0.4-2.8-0.5v-2.7h42.2v13.2H189c-0.5-1.9-1.6-4-3.3-6.2c-1.7-2.2-3.3-3.4-4.9-3.6c-0.8-0.1-1.7-0.2-2.8-0.2
			c-1.1-0.1-2.4-0.1-3.8-0.1h-8.6v21.7h6.2c2,0,3.4-0.2,4.3-0.6c0.9-0.4,1.7-1,2.4-1.9c0.6-0.7,1-1.7,1.4-3c0.4-1.2,0.7-2.4,0.8-3.5
			h2.9v21.4h-2.9c-0.1-1.2-0.4-2.5-0.8-3.9c-0.4-1.4-0.9-2.4-1.4-3c-0.8-1-1.7-1.7-2.7-2c-1-0.3-2.4-0.5-4-0.5h-6.2v16.4
			c0,1.6,0.1,2.9,0.3,3.9c0.2,0.9,0.7,1.7,1.3,2.2c0.7,0.5,1.6,0.8,2.7,0.9c1.2,0.1,2.8,0.2,4.9,0.2c0.8,0,2,0,3.3,0
			c1.4,0,2.6-0.1,3.5-0.2c1-0.1,2-0.3,3-0.6c1-0.3,1.8-0.6,2.2-1.1c1.2-1.2,2.4-3.1,3.7-5.6c1.3-2.5,2.1-4.3,2.5-5.5H196z"/>
		<path class="st0" d="M286.1-114.2h-15c-1-3-2.1-5.7-3.1-8.1c-1-2.5-2-4.8-3.1-7.1c-1.7-3.8-3.4-6.4-5.1-7.8
			c-1.7-1.4-4.1-2.1-7-2.1h-2.4v17.5c0,0.8,0.2,1.6,0.5,2.3c0.3,0.7,0.9,1.2,1.8,1.6c0.4,0.2,1.2,0.4,2.3,0.7c1.1,0.3,2,0.4,2.8,0.4
			v2.7h-22.7v-2.7c0.6-0.1,1.4-0.1,2.6-0.2c1.1-0.1,1.9-0.3,2.4-0.5c0.8-0.3,1.3-0.8,1.7-1.5c0.3-0.7,0.5-1.4,0.5-2.4v-17.9h-2.3
			c-3,0-5.3,0.6-6.9,1.9c-1.7,1.3-3.4,3.9-5.2,8c-1,2.2-2.1,4.7-3.2,7.5c-1.1,2.8-2.1,5.4-3,7.8h-14.9v-2.7c0.6-0.1,1.2-0.1,2-0.2
			c0.7-0.1,1.4-0.2,2.2-0.3c1.1-0.2,2-0.6,2.7-1.3c0.7-0.7,1.4-1.7,2-3.2c0.6-1.3,1.3-2.8,2.1-4.6c0.8-1.8,1.6-3.5,2.4-5.1
			c1.3-2.9,2.9-5.2,4.8-6.9c1.9-1.7,4.1-2.9,6.8-3.7v-0.5c-1-0.9-1.9-1.9-2.7-2.9c-0.7-1-1.4-2.1-2-3.2c-0.5-1.1-1-2.1-1.3-3.2
			c-0.4-1.1-0.7-2.2-1.1-3.3c-0.3-0.9-0.6-1.9-0.9-3c-0.3-1.1-0.7-2.1-1-2.8c-0.4-0.8-0.8-1.6-1.3-2.3c-0.5-0.7-1.1-1.3-1.8-1.7
			c-0.3,0.6-0.6,1.2-1.1,2c-0.4,0.8-0.8,1.3-1.2,1.7c-0.5,0.5-1.1,0.9-1.6,1.2c-0.5,0.3-1.3,0.4-2.3,0.4c-1.4,0-2.4-0.5-3-1.4
			c-0.6-0.9-1-1.9-1-3c0-0.7,0.1-1.3,0.4-1.8c0.2-0.6,0.6-1.1,1.2-1.6c0.5-0.5,1.2-0.8,2-1.1c0.8-0.3,1.8-0.4,2.9-0.4
			c1.6,0,3.1,0.3,4.4,0.9c1.3,0.6,2.5,1.4,3.5,2.4c1.4,1.4,2.5,3.1,3.3,5.1c0.8,2,1.6,3.9,2.1,5.8c0.7,2.3,1.3,4.2,1.9,5.8
			c0.5,1.6,1.5,3,2.8,4.3c0.8,0.8,1.7,1.4,2.6,1.8c0.9,0.4,1.8,0.6,2.8,0.6h3.1v-18.3c0-0.9-0.1-1.6-0.4-2.3
			c-0.3-0.6-0.9-1.2-1.8-1.6c-0.7-0.3-1.5-0.6-2.5-0.9c-0.9-0.3-1.8-0.4-2.5-0.5v-2.7h22.7v2.7c-0.7,0-1.6,0.1-2.7,0.3
			c-1.1,0.2-1.9,0.4-2.4,0.6c-0.9,0.3-1.5,0.8-1.8,1.5c-0.3,0.7-0.5,1.5-0.5,2.3v18.7h3.1c0.9,0,1.9-0.2,2.8-0.6
			c0.9-0.4,1.8-1,2.5-1.8c1.1-1.1,2-2.6,2.7-4.3c0.7-1.7,1.4-3.6,2-5.8c0.6-1.9,1.3-3.9,2.2-5.9s2-3.7,3.3-5.1c1-1,2.2-1.8,3.5-2.4
			c1.4-0.6,2.8-0.9,4.4-0.9c1.1,0,2.1,0.1,2.9,0.4c0.8,0.3,1.5,0.6,2.1,1.1c0.5,0.4,0.9,0.9,1.2,1.5c0.3,0.6,0.4,1.2,0.4,1.9
			c0,0.6-0.1,1.1-0.3,1.7c-0.2,0.5-0.4,1-0.7,1.3c-0.4,0.4-0.8,0.8-1.2,1c-0.4,0.2-1.1,0.4-1.8,0.4c-0.8,0-1.6-0.1-2.2-0.4
			c-0.6-0.3-1.2-0.7-1.6-1.2c-0.5-0.5-0.9-1.1-1.3-1.7c-0.4-0.7-0.7-1.3-1.1-2c-0.7,0.5-1.3,1-1.8,1.7c-0.5,0.7-0.9,1.5-1.3,2.3
			c-0.3,0.7-0.7,1.7-1,2.8c-0.3,1.2-0.6,2.1-0.9,2.9c-0.3,0.8-0.6,1.9-1,3.2c-0.4,1.3-0.9,2.4-1.3,3.3c-0.5,1.1-1.2,2.2-1.9,3.2
			c-0.8,1.1-1.7,2.1-2.7,3v0.5c2.7,0.8,5,2,6.9,3.8c1.9,1.7,3.5,4,4.7,6.7c0.7,1.6,1.5,3.3,2.4,5.1c0.9,1.8,1.6,3.3,2.1,4.6
			c0.6,1.3,1.3,2.4,2,3.1c0.7,0.7,1.4,1.2,2.3,1.3c0.8,0.2,1.6,0.3,2.4,0.4c0.8,0.1,1.5,0.2,2.1,0.2V-114.2z"/>
		<path class="st0" d="M355.5-114.2h-22.6v-2.7c0.6-0.1,1.5-0.1,2.7-0.2c1.2-0.1,2-0.3,2.4-0.5c0.8-0.3,1.3-0.8,1.7-1.4
			c0.4-0.6,0.5-1.4,0.5-2.4v-34l-26.4,32.9v0.9c0,0.9,0.1,1.6,0.4,2.2c0.3,0.6,0.9,1.1,1.8,1.5c0.4,0.2,1.2,0.5,2.4,0.7
			c1.2,0.2,2.1,0.4,2.8,0.4v2.7h-22.6v-2.7c0.6-0.1,1.5-0.1,2.7-0.2c1.2-0.1,2-0.3,2.4-0.5c0.8-0.3,1.3-0.8,1.7-1.4
			c0.4-0.6,0.5-1.4,0.5-2.4v-39.4c0-0.8-0.2-1.6-0.5-2.3c-0.3-0.7-0.9-1.2-1.7-1.6c-0.7-0.3-1.5-0.6-2.5-0.9c-1-0.3-1.8-0.4-2.6-0.5
			v-2.7h22.6v2.7c-0.7,0-1.6,0.1-2.7,0.3c-1.1,0.2-1.9,0.4-2.4,0.6c-0.9,0.3-1.5,0.8-1.8,1.5c-0.3,0.7-0.4,1.5-0.4,2.3v33.2
			l26.4-32.9c0-0.9-0.2-1.7-0.5-2.3c-0.3-0.6-0.9-1.1-1.7-1.5c-0.6-0.3-1.5-0.6-2.7-0.9c-1.1-0.3-2-0.4-2.7-0.5v-2.7h22.6v2.7
			c-0.7,0-1.6,0.1-2.6,0.3c-1,0.2-1.8,0.4-2.3,0.6c-0.9,0.3-1.5,0.8-1.8,1.5c-0.3,0.7-0.4,1.5-0.4,2.3v39.3c0,0.9,0.1,1.7,0.4,2.3
			c0.3,0.6,0.9,1.2,1.8,1.6c0.4,0.2,1.2,0.5,2.3,0.7c1.1,0.2,2,0.4,2.6,0.4V-114.2z"/>
		<path class="st0" d="M438.7-114.2h-24.1v-2.7c0.9,0,2-0.1,3.4-0.3c1.4-0.2,2.3-0.4,2.8-0.7c0.8-0.5,1.4-1,1.8-1.7
			c0.4-0.6,0.6-1.4,0.6-2.4v-39.7h-0.6l-18.6,46.5H402l-17.7-47.5h-0.5v32.6c0,3.2,0.2,5.6,0.6,7.2c0.4,1.6,1,2.8,1.8,3.5
			c0.6,0.5,1.7,1.1,3.5,1.5c1.8,0.5,2.9,0.7,3.5,0.8v2.7h-22v-2.7c1.2-0.1,2.4-0.3,3.6-0.6c1.3-0.3,2.3-0.7,2.9-1.3
			c0.9-0.7,1.5-1.8,1.8-3.3c0.3-1.5,0.5-4,0.5-7.5v-27.9c0-1.6-0.2-2.9-0.6-4c-0.4-1-0.9-1.9-1.7-2.5c-0.8-0.7-1.8-1.2-2.9-1.5
			c-1.2-0.3-2.3-0.5-3.4-0.6v-2.7h18.6l15.6,41l13.3-34.3c0.5-1.3,0.9-2.6,1.2-3.9c0.3-1.4,0.5-2.3,0.6-2.8h17.8v2.7
			c-0.7,0-1.6,0.1-2.8,0.3c-1.1,0.2-1.9,0.4-2.4,0.6c-0.9,0.3-1.5,0.8-1.8,1.5c-0.3,0.7-0.5,1.5-0.5,2.3v39.3c0,0.9,0.2,1.7,0.5,2.3
			c0.3,0.6,0.9,1.2,1.8,1.6c0.5,0.3,1.3,0.5,2.5,0.7c1.2,0.2,2.1,0.3,2.8,0.4V-114.2z"/>
	</g>
	<g>
		<g>
			<path class="st2" d="M103.7-74.7l-4.6-5.4l-1.2,1.4v4.1h-1.5v-12.1h1.5v6.3l5.4-6.3h1.9l-5,5.8l5.5,6.3H103.7z"/>
			<path class="st2" d="M108.1-80.7c0-3.6,2.4-6.3,6-6.3c3.6,0,6,2.7,6,6.3c0,3.6-2.4,6.3-6,6.3C110.5-74.5,108.1-77.1,108.1-80.7z
				 M118.5-80.7c0-2.8-1.7-4.9-4.4-4.9c-2.7,0-4.4,2.1-4.4,4.9c0,2.8,1.7,4.9,4.4,4.9C116.8-75.8,118.5-77.9,118.5-80.7z"/>
			<path class="st2" d="M127.2-74.7v-10.8h-3.8v-1.3h9.2v1.3h-3.8v10.8H127.2z"/>
			<path class="st2" d="M135.8-80.7c0-3.6,2.4-6.3,6-6.3c3.6,0,6,2.7,6,6.3c0,3.6-2.4,6.3-6,6.3C138.3-74.5,135.8-77.1,135.8-80.7z
				 M146.3-80.7c0-2.8-1.7-4.9-4.4-4.9c-2.7,0-4.4,2.1-4.4,4.9c0,2.8,1.7,4.9,4.4,4.9C144.6-75.8,146.3-77.9,146.3-80.7z"/>
			<path class="st2" d="M152.5-74.7v-12.1h4.9c2.4,0,3.8,1.7,3.8,3.6c0,2-1.4,3.6-3.8,3.6H154v4.8H152.5z M159.6-83.1
				c0-1.4-1-2.3-2.4-2.3H154v4.6h3.2C158.6-80.8,159.6-81.8,159.6-83.1z"/>
			<path class="st2" d="M166.9-86.8v4.8h3.4c2.4,0,3.8,1.7,3.8,3.6c0,2-1.4,3.6-3.8,3.6h-4.9v-12.1H166.9z M166.9-80.6v4.6h3.2
				c1.4,0,2.4-0.9,2.4-2.3c0-1.4-1-2.3-2.4-2.3H166.9z M175.4-74.7v-12.1h1.5v12.1H175.4z"/>
			<path class="st2" d="M182-74.7v-12.1h1.5v9.5l7-9.5h1.5v12.1h-1.5v-9.7l-7.1,9.7H182z M187-87.5c-1.3,0-2.4-0.6-3.2-1.6l0.7-0.6
				c0.6,0.8,1.5,1.3,2.5,1.3c1.1,0,1.9-0.5,2.5-1.3l0.7,0.6C189.4-88.1,188.3-87.5,187-87.5z"/>
			<path class="st2" d="M202.9-75.4l0.6-1.2c0.4,0.5,1,0.8,1.7,0.8c1,0,1.4-0.5,2-1.7l0.2-0.4l-4.6-8.8h1.7l3.8,7.5l3.8-7.5h1.7
				l-5.3,10c-0.8,1.4-1.6,2.4-3.3,2.4C204.2-74.5,203.3-74.9,202.9-75.4z"/>
			<path class="st2" d="M216.8-80.7c0-3.7,2.7-6.3,6.2-6.3c2.1,0,3.6,1,4.6,2.4l-1.3,0.7c-0.7-1-1.9-1.8-3.3-1.8
				c-2.6,0-4.7,2-4.7,4.9c0,2.9,2,4.9,4.7,4.9c1.4,0,2.6-0.7,3.3-1.8l1.3,0.7c-1,1.4-2.5,2.4-4.6,2.4
				C219.5-74.5,216.8-77,216.8-80.7z"/>
			<path class="st2" d="M234.8-74.7v-10.8H231v-1.3h9.2v1.3h-3.8v10.8H234.8z"/>
			<path class="st2" d="M251.8-74.7l-1.1-2.7h-6l-1.1,2.7h-1.7l4.9-12.1h1.9l4.9,12.1H251.8z M247.7-85.2l-2.6,6.5h5.1L247.7-85.2z"
				/>
			<path class="st2" d="M266-74.7v-5.6h-7.1v5.6h-1.5v-12.1h1.5v5.2h7.1v-5.2h1.5v12.1H266z"/>
			<path class="st2" d="M281.2-74.7l-1.1-2.7h-6l-1.1,2.7h-1.7l4.9-12.1h1.9l4.9,12.1H281.2z M277.1-85.2l-2.6,6.5h5.1L277.1-85.2z"
				/>
			<path class="st2" d="M286.8-74.7v-12.1h5.4c2.1,0,3.4,1.3,3.4,3.1c0,1.5-1,2.5-2.1,2.8c1.3,0.2,2.4,1.5,2.4,3
				c0,1.9-1.3,3.3-3.5,3.3H286.8z M294-83.5c0-1.1-0.7-2-2.1-2h-3.6v3.9h3.6C293.3-81.5,294-82.4,294-83.5z M294.2-78.1
				c0-1.1-0.8-2.1-2.3-2.1h-3.7v4.2h3.7C293.4-76,294.2-76.8,294.2-78.1z"/>
			<path class="st2" d="M299.6-75.8c1.5,0,2.3-0.8,2.8-4.9l0.7-6.1h7.4v12.1H309v-10.8h-4.6l-0.6,4.8c-0.7,5.3-2.1,6.1-4.3,6.1
				V-75.8z"/>
			<path class="st2" d="M315.6-74.7v-12.1h1.5v9.5l7-9.5h1.5v12.1h-1.5v-9.7l-7.1,9.7H315.6z"/>
			<path class="st2" d="M330.7-74.7v-12.1h5.4c2.1,0,3.4,1.3,3.4,3.1c0,1.5-1,2.5-2.1,2.8c1.3,0.2,2.4,1.5,2.4,3
				c0,1.9-1.3,3.3-3.5,3.3H330.7z M337.9-83.5c0-1.1-0.7-2-2.1-2h-3.6v3.9h3.6C337.2-81.5,337.9-82.4,337.9-83.5z M338.2-78.1
				c0-1.1-0.8-2.1-2.3-2.1h-3.7v4.2h3.7C337.3-76,338.2-76.8,338.2-78.1z"/>
			<path class="st2" d="M353-74.7l-1.1-2.7h-6l-1.1,2.7h-1.7l4.9-12.1h1.9l4.9,12.1H353z M349-85.2l-2.6,6.5h5.1L349-85.2z"/>
			<path class="st2" d="M358.6-74.7v-12.1h7.9v1.3h-6.4v3.9h6.3v1.3h-6.3v4.2h6.4v1.3H358.6z"/>
			<path class="st2" d="M385.7-86.8v12.1h-14.5v-12.1h1.5V-76h5v-10.8h1.5V-76h5v-10.8H385.7z"/>
			<path class="st2" d="M392.3-86.8v4.8h3.4c2.4,0,3.8,1.7,3.8,3.6c0,2-1.4,3.6-3.8,3.6h-4.9v-12.1H392.3z M392.3-80.6v4.6h3.2
				c1.4,0,2.4-0.9,2.4-2.3c0-1.4-1-2.3-2.4-2.3H392.3z"/>
			<path class="st2" d="M413.7-74.7v-10.8h-3.8v-1.3h9.2v1.3h-3.8v10.8H413.7z"/>
			<path class="st2" d="M424.8-86.8v4.8h3.4c2.4,0,3.8,1.7,3.8,3.6c0,2-1.4,3.6-3.8,3.6h-4.9v-12.1H424.8z M424.8-80.6v4.6h3.2
				c1.4,0,2.4-0.9,2.4-2.3c0-1.4-1-2.3-2.4-2.3H424.8z M433.3-74.7v-12.1h1.5v12.1H433.3z"/>
		</g>
	</g>
	<g>
		<polygon class="st3" points="258.3,-301.4 266.6,-301.4 260.1,-213.4 251.1,-213.4 		"/>
		<polygon class="st3" points="278.7,-301.4 286.9,-301.4 280.5,-213.4 271.5,-213.4 		"/>
		<rect x="241.1" y="-274.9" class="st3" width="58.5" height="8.3"/>
		<rect x="241.1" y="-250.8" class="st3" width="58.5" height="8.3"/>
	</g>
</g>
<g>
	<g class="st4">
		<g>
			<g>
				<defs>
					<path id="SVGID_2_" d="M246.7,85.4v7.2h5l19.4,53.2c0,0-4.7,11.1-10.8,11.1c1.1-1.9-1.4-7.2-6.1-6.7c-4.4,0-8.9,10.6,1.4,14.1
						c10.3,3.5,18.3-4.7,21.9-12.2c3.6-7.5,18.8-59.6,18.8-59.6h3.6l-0.3-7.2h-16.4l0.3,7.2h3.3l-11.1,39.9l-15-39.9h2.8l0.3-7.2
						L246.7,85.4L246.7,85.4z"/>
				</defs>
				<use xlink:href="#SVGID_2_"  style="overflow:visible;fill:#383938;"/>
				<clipPath id="SVGID_3_">
					<use xlink:href="#SVGID_2_"  style="overflow:visible;"/>
				</clipPath>
				<g class="st5">
					
						<image style="overflow:visible;enable-background:new    ;" width="858" height="579" xlink:href="BF2D8F31.jpg"  transform="matrix(0.6361 0 0 0.6361 -5.7463 -64.7793)">
					</image>
				</g>
			</g>
		</g>
		<g>
			<g>
				<defs>
					<polygon id="SVGID_4_" points="412.4,83.9 412,92 419,92 419.2,154.2 415.7,154.2 415.3,162 430.7,162 430.7,154.2 
						427.2,154.2 427.6,92 444.8,92 444.4,154.2 440.7,154.2 440.5,162 456.3,162 455.9,154.2 452,154.2 452,92 456.5,92 
						456.7,83.9 					"/>
				</defs>
				<use xlink:href="#SVGID_4_"  style="overflow:visible;fill:#383938;"/>
				<clipPath id="SVGID_5_">
					<use xlink:href="#SVGID_4_"  style="overflow:visible;"/>
				</clipPath>
				<g class="st6">
					
						<image style="overflow:visible;enable-background:new    ;" width="858" height="579" xlink:href="BF2D8F33.jpg"  transform="matrix(0.6361 0 0 0.6361 -5.7463 -64.7793)">
					</image>
				</g>
			</g>
		</g>
		<g>
			<g>
				<defs>
					<path id="SVGID_6_" d="M88.8,85.5l-0.1,7.2h6c0,0,0.4,20.9-1.2,41.4c-1.7,20.5-2.8,19.3-7.6,19.7c-4.8,0.4-4.4-7.8-4.4-8.6
						c-1.4-0.4-7.3-0.1-7.3-0.1s-0.3,18.5,8.9,18.5c9.1,0,15.8-2.7,18.7-15c2.9-12.3,3.6-55.8,3.6-55.8H123l-0.4,63.6h-5.7l-0.3,7.6
						h19.4l-0.4-7.6h-4.3V92.7h4.8l0.4-7.2H88.8L88.8,85.5z"/>
				</defs>
				<use xlink:href="#SVGID_6_"  style="overflow:visible;fill:#383938;"/>
				<clipPath id="SVGID_7_">
					<use xlink:href="#SVGID_6_"  style="overflow:visible;"/>
				</clipPath>
				<g class="st7">
					
						<image style="overflow:visible;enable-background:new    ;" width="858" height="579" xlink:href="BF2D8F36.jpg"  transform="matrix(0.6361 0 0 0.6361 -5.7463 -64.7793)">
					</image>
				</g>
			</g>
		</g>
		<g>
			<g>
				<defs>
					<polygon id="SVGID_8_" points="304.8,85.1 305,93.1 308.9,93.1 309.1,155.3 304.2,155.3 303.6,163.2 320.8,163.2 321,155.3 
						317.5,155.3 316.9,128.4 322.9,119.9 341.9,155.3 336.6,155.3 336.4,163.2 354,163.2 353.8,155.1 349.3,155.1 327.8,113.3 
						341.9,93.1 346.4,93.1 346.8,85.1 333.3,85.1 332.9,93.1 335,93.1 317.1,116.6 317.1,93.1 321,93.1 321.2,85.1 					"/>
				</defs>
				<use xlink:href="#SVGID_8_"  style="overflow:visible;fill:#383938;"/>
				<clipPath id="SVGID_9_">
					<use xlink:href="#SVGID_8_"  style="overflow:visible;"/>
				</clipPath>
				<g class="st8">
					
						<image style="overflow:visible;enable-background:new    ;" width="858" height="579" xlink:href="BF2D8F37.jpg"  transform="matrix(0.6361 0 0 0.6361 -5.7463 -64.7793)">
					</image>
				</g>
			</g>
		</g>
		<g>
			<g>
				<defs>
					<path id="SVGID_10_" d="M198.9,85.3l0.4,7.2h4.1l-0.9,63.6h-4.1v7.6c0,0,12.2,0,20,0c7.8,0,17.7-5.4,20.1-15.7
						c2.4-10.3,0.4-23.5-27-25.5c-0.6-7.2-0.4-29.9-0.4-29.9l19.3,0.2l0,5.3h7.1l-0.1-12.8H198.9L198.9,85.3z M210.9,131.2
						c0,0,19.8-2.4,20.9,7.9c1.1,10.3-1.5,17-20.9,17C210.9,148,210.9,131.2,210.9,131.2L210.9,131.2z"/>
				</defs>
				<use xlink:href="#SVGID_10_"  style="overflow:visible;fill:#383938;"/>
				<clipPath id="SVGID_11_">
					<use xlink:href="#SVGID_10_"  style="overflow:visible;"/>
				</clipPath>
				<g class="st9">
					
						<image style="overflow:visible;enable-background:new    ;" width="858" height="579" xlink:href="BF2D8F32.jpg"  transform="matrix(0.6361 0 0 0.6361 -5.7463 -64.7793)">
					</image>
				</g>
			</g>
		</g>
		<g>
			<g>
				<defs>
					<path id="SVGID_12_" d="M192.9,155.3l-0.4,7.6h-15.2l0.2-7.6h3.9l-3.9-17.9l-19.4-0.4l-5.2,18.3h4.1v7.6h-16.4v-7.6h4.2
						l18.5-63.6h-4.1l-0.2-7.2h19.8l-0.2,7.2h-3l13.3,63.6H192.9L192.9,155.3z M169.4,99.9l-8.9,29.6l15.3,0.4L169.4,99.9
						L169.4,99.9z"/>
				</defs>
				<use xlink:href="#SVGID_12_"  style="overflow:visible;fill:#383938;"/>
				<clipPath id="SVGID_13_">
					<use xlink:href="#SVGID_12_"  style="overflow:visible;"/>
				</clipPath>
				<g class="st10">
					
						<image style="overflow:visible;enable-background:new    ;" width="858" height="579" xlink:href="BF2D8F3D.jpg"  transform="matrix(0.6361 0 0 0.6361 -5.7463 -64.7793)">
					</image>
				</g>
			</g>
		</g>
		<g>
			<g>
				<defs>
					<path id="SVGID_14_" d="M409.8,155.3l-0.4,7.6h-15.2l0.2-7.6h3.9l-3.9-17.9L375,137l-5.2,18.3h4.1v7.6h-16.4v-7.6h4.3
						l18.5-63.6h-4.1l-0.2-7.2h19.8l-0.2,7.2h-3l13.3,63.6H409.8L409.8,155.3z M386.3,99.9l-8.9,29.6l15.3,0.4L386.3,99.9
						L386.3,99.9z"/>
				</defs>
				<use xlink:href="#SVGID_14_"  style="overflow:visible;fill:#383938;"/>
				<clipPath id="SVGID_15_">
					<use xlink:href="#SVGID_14_"  style="overflow:visible;"/>
				</clipPath>
				<g class="st11">
					
						<image style="overflow:visible;enable-background:new    ;" width="858" height="579" xlink:href="BF2D8F3E.jpg"  transform="matrix(0.6361 0 0 0.6361 -5.7463 -64.7793)">
					</image>
				</g>
			</g>
		</g>
	</g>
	<g class="st12">
		<path class="st13" d="M193.3,189.1l5.8,15.3l5.6-15.3h3.3v18h-2.3v-15l-5.6,15H198l-5.7-15v15H190v-18H193.3z"/>
		<path class="st13" d="M212.1,207.1V194h2.2v10.6h0.1l5.9-10.6h2.8v13.1h-2.1v-10.6h-0.1l-5.9,10.6H212.1z"/>
		<path class="st13" d="M228.7,195.9c1-1.6,2.5-2.3,4.4-2.3c3.6,0,5.9,2.6,5.9,6.9c0,4.2-2.3,6.9-5.8,6.9c-1.9,0-3.3-0.6-4.4-2.1
			v6.9h-2.2V194h2V195.9z M228.8,200.5c0,3.2,1.6,5.1,4.1,5.1c2.5,0,4-1.9,4-5.1c0-3.2-1.5-5.1-4-5.1
			C230.3,195.4,228.8,197.4,228.8,200.5z"/>
		<path class="st13" d="M256.1,189.5c1.6-0.1,2.7-0.2,3-0.8h2.1c-0.5,2.7-3.2,2.6-5.5,2.8c-2.9,0.2-4.3,2.4-4.7,5.5h0.1
			c0.7-1.7,2.4-3,4.6-3c3.7,0,5.9,2.4,5.9,6.7c0,4.4-2.3,6.9-6.1,6.9c-3.1,0-5.5-1.8-6-5.4c-0.1-0.7-0.2-1.5-0.2-2.4
			c0-2.5,0.3-5.5,1.6-7.5C252.1,190.4,253.6,189.6,256.1,189.5z M255.6,205.7c2.4,0,3.9-1.8,3.9-5c0-3.1-1.5-4.9-3.9-4.9
			c-2.4,0-4,1.9-4,5C251.6,203.7,253.1,205.7,255.6,205.7z"/>
		<path class="st13" d="M276.7,200.5c0,4.4-2.3,7-6.3,7c-4,0-6.4-2.6-6.4-6.9c0-4.3,2.5-7,6.4-7
			C274.4,193.7,276.7,196.2,276.7,200.5z M266.3,200.6c0,3.2,1.5,5.1,4.2,5.1c2.5,0,4-1.9,4-5.1c0-3.1-1.6-5.1-4.1-5.1
			C267.9,195.5,266.3,197.5,266.3,200.6z"/>
		<path class="st13" d="M290,207.1h-2.2v-11.2h-4.7l-0.2,5.8c-0.1,4.3-1.8,5.7-3.6,5.7c-0.6,0-1.3-0.2-1.5-0.3v-1.7
			c0.3,0.2,0.9,0.2,1.1,0.2c0.9,0,1.8-0.8,1.9-3.6l0.2-7.9h8.9V207.1z"/>
		<path class="st13" d="M300.6,207.1h-6.9V194h2.2v5h4.7c2.6,0,4.2,1.5,4.2,4C304.7,205.5,303.1,207.1,300.6,207.1z M295.8,200.9
			v4.3h4c1.8,0,2.7-0.8,2.7-2.2c0-1.4-0.9-2.1-2.7-2.1H295.8z"/>
		<path class="st13" d="M307.4,194h2.1v11.2h5.4V194h2.1v11.2h5.4V194h2.2v13.1h-17.2V194z"/>
		<path class="st13" d="M333.8,207.5c-3.8,0-6.1-2.5-6.1-6.8c0-4.2,2.5-7.1,6.1-7.1c4.3,0,5.9,3.4,5.9,7.2v0.3h-9.8l0,0.2
			c0,2.8,1.5,4.5,4.1,4.5c1.9,0,2.9-0.8,3.5-2.8h2.1C338.8,206,336.9,207.5,333.8,207.5z M333.7,195.4c-2.1,0-3.6,1.5-3.8,4h7.6
			C337.2,196.9,335.8,195.4,333.7,195.4z"/>
	</g>
</g>
</svg>
