<?xml version="1.0" encoding="utf-8"?>
<!-- Generator: Adobe Illustrator 17.1.0, SVG Export Plug-In . SVG Version: 6.00 Build 0)  -->
<!DOCTYPE svg PUBLIC "-//W3C//DTD SVG 1.1//EN" "http://www.w3.org/Graphics/SVG/1.1/DTD/svg11.dtd">
<svg version="1.1" id="Layer_1" xmlns="http://www.w3.org/2000/svg" xmlns:xlink="http://www.w3.org/1999/xlink" x="0px" y="0px"
	 viewBox="0 178.9 595.3 483.5" enable-background="new 0 178.9 595.3 483.5" xml:space="preserve">
<g>
	<g>
		<g>
			<path fill="#383938" d="M2.8,489.3h4.5L28,520.7l20.7-31.4h4.5v58.3h-4.8v-49.8l-19,29.1h-3.1l-19-29.1v49.8H2.8V489.3z"/>
			<path fill="#383938" d="M71.9,545.9l22.6-56.6h4.8l22.6,56.6v1.7h-4.8l-6.5-16.4H82.9l-6.5,16.4h-4.5L71.9,545.9L71.9,545.9z
				 M109.2,526.9l-12.4-31.1l-12.4,31.1H109.2z"/>
			<path fill="#383938" d="M138.6,527.8v-18.7c0-13.3,8.2-20.9,22.1-20.9c11,0,20.9,6.5,20.9,19.5v0.8h-4.8v-0.8
				c0-10.2-7.9-15-16.1-15c-11,0-17.3,5.9-17.3,16.1v19.5c0,10.2,6.2,16.1,17.3,16.1c8.2,0,16.1-4.8,16.1-15v-0.8h4.8v0.8
				c0,13-9.9,19.5-20.9,19.5C146.8,548.7,138.6,541,138.6,527.8z"/>
			<path fill="#383938" d="M215.9,493.5h-18.4v-4.2h41.6v4.2h-18.4v53.8h-4.8V493.5z"/>
			<path fill="#383938" d="M257.5,489.3h35.4v4.2h-30.6v22.4h26.6v4.2h-26.6V543h30.6v4.2h-35.4V489.3z"/>
			<path fill="#383938" d="M314,489.3h23.5c9.9,0,15.8,6.8,15.8,17.3s-5.9,17.3-15.8,17.3h-18.7v23.8H314V489.3z M336.7,519.3
				c7.1,0,11.6-4.8,11.6-12.7c0-8.2-4.5-13-11.6-13h-18.1v25.7H336.7z"/>
			<path fill="#383938" d="M372.1,527.8v-18.7c0-13.3,8.2-20.9,22.1-20.9c11,0,20.9,6.5,20.9,19.5v0.8h-4.8v-0.8
				c0-10.2-7.9-15-16.1-15c-11,0-17.3,5.9-17.3,16.1v19.5c0,10.2,6.2,16.1,17.3,16.1c8.2,0,16.1-4.8,16.1-15v-0.8h4.8v0.8
				c0,13-9.9,19.5-20.9,19.5C380.3,548.7,372.1,541,372.1,527.8z"/>
			<path fill="#383938" d="M436.8,489.3h4.8v26.9h11l18.4-26.9h4.5v1.7l-18.7,27.2l19.8,27.7v1.7h-4.8l-19-27.2h-11v27.2h-4.8v-58.3
				H436.8z"/>
			<path fill="#383938" d="M489.2,545.9l22.6-56.6h4.8l22.6,56.6v1.7h-4.8l-6.5-16.4h-27.7l-6.5,16.4h-4.5L489.2,545.9L489.2,545.9z
				 M526.5,526.9l-12.4-31.1l-12.4,31.1H526.5z"/>
			<path fill="#383938" d="M554.5,545.9l14.1-22.6c-7.9-1.1-13-6.8-13-17c0-10.5,5.9-17.3,16.1-17.3h23.5v58.3h-4.8v-23.8h-16.4
				l-14.7,23.8h-4.8V545.9z M590.5,519.3v-25.7h-17.8c-7.4,0-11.9,4.8-11.9,13s4.5,13,11.9,13h17.8V519.3z"/>
			<path fill="#383938" d="M0,646.3h4.2c4.2-5.4,8.5-12.2,8.5-29.7v-24.3h32.8V646h7.4v16.4h-4.5v-12.2H4.5v12.2H0V646.3z
				 M40.7,646.3v-49.5H17.3v19.8c0,17.3-3.7,24-7.6,29.7H40.7z"/>
			<path fill="#383938" d="M72.7,592.5h4.8v49.8l32.5-49.8h4.5v58.3h-4.8V601l-32.5,49.8h-4.5C72.7,650.8,72.7,592.5,72.7,592.5z"/>
			<path fill="#383938" d="M135.5,632.4h4.8c0,9.9,7.1,14.7,16.4,14.7c9.3,0,15-4.8,15-13c0-7.1-5.1-11.6-13.6-11.6h-8.5v-4.2h8.5
				c7.4,0,11.9-3.4,11.9-10.5c0-6.8-4.8-12.2-13.9-12.2c-8.5,0-14.7,4.8-14.7,14.7h-4.8c0-13,8.5-19.5,19.8-19.5
				c12.2,0,18.7,6.8,18.7,16.1c0,7.4-4.2,11.6-9.6,13.3c6.2,1.4,11.3,5.9,11.3,13.9c0,10.5-7.1,17.5-19.8,17.5
				C144.9,652,135.5,645.4,135.5,632.4z"/>
			<path fill="#383938" d="M191.8,649.1l22.6-56.6h4.8l22.6,56.6v1.7h-4.8l-6.5-16.4h-27.7l-6.5,16.4h-4.5L191.8,649.1L191.8,649.1z
				 M229.2,630.2L216.7,599l-12.4,31.1H229.2z"/>
			<path fill="#383938" d="M260.3,592.5h4.8v49.8l32.5-49.8h4.5v58.3h-4.8V601l-32.5,49.8h-4.5V592.5z M268.5,577.8V577h4v0.8
				c0,5.1,3.1,7.6,8.5,7.6c5.4,0,8.5-2.5,8.5-7.6V577h4v0.8c0,7.4-5.4,11.3-12.7,11.3C273.6,589.1,268.5,584.9,268.5,577.8z"/>
			<path fill="#383938" d="M326.5,592.5h4.8v26.9h32v-26.9h4.8v58.3h-4.8v-27.2h-32v27.2h-4.8L326.5,592.5L326.5,592.5z"/>
			<path fill="#383938" d="M386.5,649.1l22.6-56.6h4.8l22.6,56.6v1.7h-4.8l-6.5-16.4h-27.7l-6.5,16.4h-4.5L386.5,649.1L386.5,649.1z
				 M423.8,630.2L411.4,599l-12.4,31.1H423.8z"/>
		</g>
		<g>
			<path fill="#383938" d="M0,191.9v-5.7l24.3-2.8h9.1v211.9h-9.1V191.9H0z"/>
			<path fill="#383938" d="M86.6,334.8V244c0-41,25.7-65.1,65.6-65.1s65.9,23.8,65.9,65.1v90.8c0,41-26,65.1-65.9,65.1
				S86.6,375.8,86.6,334.8z M209.1,335.4v-92c0-34.8-21.8-56-56.9-56s-56.6,21.2-56.6,56v92c0,34.5,21.5,56,56.6,56
				S209.1,369.9,209.1,335.4z"/>
			<path fill="#383938" d="M257.2,341.6h9.1c4.5,31.1,26.6,49.5,57.4,49.5c36.2,0,55.7-25.5,55.7-62c0-40.7-22.1-60.8-54.9-60.8
				c-20.7,0-37.6,9.9-47.2,21.8h-8.5l8.8-106.7h98.7v8.5h-91.1l-7.4,87.1c11.3-11.6,28.6-19,47.8-19c36.5,0,62.8,21.8,62.8,69
				c0,42.2-23.5,70.7-65.1,70.7C287.5,399.9,262,378.9,257.2,341.6z"/>
			<path fill="#383938" d="M523.7,342.7H420.1v-7.6l88.6-151.6h8.2v3.7l-86.3,147.1h92.8v-63.4h9.1v63.4h30v8.5h-30v52.6h-9.1v-52.6
				H523.7z"/>
		</g>
	</g>
</g>
</svg>
