<?xml version="1.0" encoding="utf-8"?>
<!-- Generator: Adobe Illustrator 17.1.0, SVG Export Plug-In . SVG Version: 6.00 Build 0)  -->
<!DOCTYPE svg PUBLIC "-//W3C//DTD SVG 1.0//EN" "http://www.w3.org/TR/2001/REC-SVG-20010904/DTD/svg10.dtd">
<svg version="1.0" id="Layer_1" xmlns="http://www.w3.org/2000/svg" xmlns:xlink="http://www.w3.org/1999/xlink" x="0px" y="0px"
	 viewBox="0 0 530.7 296" style="enable-background:new 0 0 530.7 296;" xml:space="preserve">
<style type="text/css">
	.Drop_x0020_Shadow{fill:none;}
	.Round_x0020_Corners_x0020_2_x0020_pt{fill:#FFFFFF;stroke:#000000;stroke-miterlimit:10;}
	.Live_x0020_Reflect_x0020_X{fill:none;}
	.Bevel_x0020_Soft{fill:url(#SVGID_1_);}
	.Dusk{fill:#FFFFFF;}
	.Foliage_GS{fill:#FFDD00;}
	.Pompadour_GS{fill-rule:evenodd;clip-rule:evenodd;fill:#44ADE2;}
	.st0{fill:#383938;}
	.st1{fill:none;stroke:#383938;stroke-width:2.7677;stroke-miterlimit:10;}
	.st2{fill:#979797;}
	.st3{fill:#C79256;}
	.st4{opacity:0.83;}
	.st5{clip-path:url(#SVGID_3_);}
	.st6{clip-path:url(#SVGID_5_);}
	.st7{clip-path:url(#SVGID_7_);}
	.st8{clip-path:url(#SVGID_9_);}
	.st9{clip-path:url(#SVGID_11_);}
	.st10{clip-path:url(#SVGID_13_);}
	.st11{clip-path:url(#SVGID_15_);}
	.st12{opacity:0.9;}
	.st13{fill:#010101;}
</style>
<linearGradient id="SVGID_1_" gradientUnits="userSpaceOnUse" x1="23.3333" y1="-285" x2="24.0404" y2="-284.2929">
	<stop  offset="0" style="stop-color:#DEDFE3"/>
	<stop  offset="0.1738" style="stop-color:#D8D9DD"/>
	<stop  offset="0.352" style="stop-color:#C9CACD"/>
	<stop  offset="0.5323" style="stop-color:#B4B5B8"/>
	<stop  offset="0.7139" style="stop-color:#989A9C"/>
	<stop  offset="0.8949" style="stop-color:#797C7E"/>
	<stop  offset="1" style="stop-color:#656B6C"/>
</linearGradient>
<g>
	<g>
		<g>
			<path class="st0" d="M91.6,95.4V52.1h32v9.8h-20.9v33.5H91.6z"/>
			<path class="st0" d="M155.1,96.3c-6.6,0-12-2.2-16.3-6.6c-4.3-4.4-6.5-9.7-6.5-16c0-6.3,2.2-11.6,6.5-16
				c4.3-4.4,9.8-6.6,16.3-6.6c6.6,0,12,2.2,16.3,6.6c4.3,4.4,6.5,9.7,6.5,16c0,6.3-2.2,11.6-6.5,16
				C167.1,94.1,161.7,96.3,155.1,96.3z M155.1,86c3.3,0,5.9-1.2,8.1-3.5c2.2-2.3,3.3-5.3,3.3-8.8c0-3.5-1.1-6.5-3.3-8.8
				s-4.8-3.5-8.1-3.5c-3.3,0-6,1.2-8.2,3.5c-2.2,2.3-3.2,5.3-3.2,8.8c0,3.5,1.1,6.5,3.2,8.8C149.1,84.8,151.8,86,155.1,86z"/>
			<path class="st0" d="M191.1,95.4V52.1h19.3c4.8,0,8.7,1.2,11.5,3.8c2.8,2.5,4.3,5.8,4.3,9.8c0,4-1.4,7.3-4.3,9.8
				s-6.7,3.8-11.5,3.8h-8.2v16.2H191.1z M202.2,70.1h7.4c3.2,0,5.3-1.6,5.3-4.3c0-2.7-2-4.3-5.3-4.3h-7.4V70.1z"/>
			<path class="st0" d="M231.9,95.4l17.3-22.3l-15.1-21h13.7l12.1,17.4V52.1H271v17.4l12.1-17.4h13.7l-15.1,21l17.3,22.3h-14.5
				L271,77.7v17.7h-11.1V77.7l-13.6,17.7H231.9z"/>
			<path class="st0" d="M309.9,94.6v-9.5c1.7,0.9,3.6,1.4,5.7,1.4c3.2,0,4.8-1.1,6.6-4.6l-16.3-29.8h12.3l9.5,18.8l8.3-18.8h11.8
				l-15.9,33.8c-2,4.3-4.8,7.4-7.5,8.7c-2.7,1.3-4.7,1.7-6.7,1.7C314.5,96.3,311.9,95.7,309.9,94.6z"/>
			<path class="st0" d="M360.5,90c-4.6-4.2-6.9-9.6-6.9-16.2c0-6.6,2.3-12,6.8-16.2c4.6-4.2,10.3-6.3,17.3-6.3
				c4.1,0,7.8,0.8,11.2,2.5v11c-3.4-2.1-7.1-3.2-11.1-3.2c-3.7,0-6.7,1.2-9.1,3.5c-2.4,2.3-3.7,5.3-3.7,8.8c0,3.6,1.2,6.6,3.7,8.8
				c2.5,2.3,5.7,3.4,9.5,3.4c4.6,0,8.4-1.2,11.4-3.5v11c-3.5,1.8-7.5,2.7-11.9,2.7C370.8,96.3,365,94.2,360.5,90z"/>
			<path class="st0" d="M402.7,95.4V52.1h11.1v13.4h7.8c5.3,0,9.5,1.4,12.6,4.2c3.2,2.8,4.8,6.4,4.8,10.8c0,4.4-1.5,8-4.7,10.8
				c-3.2,2.8-7.4,4.1-12.7,4.1H402.7z M413.9,85.9h7.1c4.2,0,6.8-2.2,6.8-5.6c0-3.5-2.6-5.8-6.8-5.8h-7.1V85.9z"/>
			<path class="st0" d="M131.1,169.7v-33.5h-13v-9.8h37.2v9.8h-13.1v33.5H131.1z"/>
			<path class="st0" d="M185.7,170.5c-6.6,0-12-2.2-16.3-6.6c-4.3-4.4-6.5-9.7-6.5-16c0-6.3,2.2-11.6,6.5-16
				c4.3-4.4,9.8-6.6,16.3-6.6c6.6,0,12,2.2,16.3,6.6c4.3,4.4,6.5,9.7,6.5,16c0,6.3-2.2,11.6-6.5,16
				C197.8,168.4,192.3,170.5,185.7,170.5z M185.7,160.3c3.3,0,5.9-1.2,8.1-3.5c2.2-2.3,3.3-5.3,3.3-8.8c0-3.5-1.1-6.5-3.3-8.8
				c-2.2-2.3-4.8-3.5-8.1-3.5c-3.3,0-6,1.2-8.2,3.5c-2.2,2.3-3.2,5.3-3.2,8.8c0,3.5,1.1,6.5,3.2,8.8
				C179.7,159.1,182.5,160.3,185.7,160.3z"/>
			<path class="st0" d="M221.7,169.7v-43.3h32.4v9.5h-21.2v4.7h8c5.1,0,9.3,1.4,12.3,4.1c3,2.7,4.6,6.3,4.6,10.5
				c0,4.3-1.5,7.8-4.6,10.5c-3,2.7-7.2,4-12.3,4H221.7z M232.9,160.1h7.2c4,0,6.5-2,6.5-5.3c0-3.4-2.5-5.5-6.5-5.5h-7.2V160.1z"/>
			<path class="st0" d="M290.8,170.5c-6.6,0-12-2.2-16.3-6.6c-4.3-4.4-6.5-9.7-6.5-16c0-6.3,2.2-11.6,6.5-16
				c4.3-4.4,9.8-6.6,16.3-6.6c6.6,0,12,2.2,16.3,6.6c4.3,4.4,6.5,9.7,6.5,16c0,6.3-2.2,11.6-6.5,16
				C302.8,168.4,297.3,170.5,290.8,170.5z M290.8,160.3c3.3,0,5.9-1.2,8.1-3.5c2.2-2.3,3.3-5.3,3.3-8.8c0-3.5-1.1-6.5-3.3-8.8
				c-2.2-2.3-4.8-3.5-8.1-3.5c-3.3,0-6,1.2-8.2,3.5c-2.2,2.3-3.2,5.3-3.2,8.8c0,3.5,1.1,6.5,3.2,8.8
				C284.8,159.1,287.5,160.3,290.8,160.3z"/>
			<path class="st0" d="M326.7,169.7v-43.3h11.1v24.4l17.9-24.4h9.7v43.3h-11.1V145l-18.2,24.7H326.7z M341.8,113.2
				c0.1,2.4,1.6,3.9,4.1,3.9c2.5,0,4.1-1.5,4.1-3.9h7.6c-0.1,3.4-1.2,6.1-3.4,8c-2.2,1.9-5,2.9-8.3,2.9s-6.1-1-8.4-2.9
				c-2.2-1.9-3.3-4.6-3.3-8H341.8z"/>
			<path class="st0" d="M377,179.1l5.6-20.3h11.1l-8,20.3H377z"/>
			<path class="st0" d="M125,238.5c-4.6-4.2-6.9-9.6-6.9-16.2c0-6.6,2.3-12,6.8-16.2c4.6-4.2,10.3-6.3,17.3-6.3
				c4.1,0,7.8,0.8,11.2,2.5v11c-3.4-2.1-7.1-3.2-11.1-3.2c-3.7,0-6.7,1.2-9.1,3.5c-2.4,2.3-3.7,5.3-3.7,8.8c0,3.6,1.2,6.6,3.7,8.8
				c2.5,2.3,5.7,3.4,9.5,3.4c4.6,0,8.4-1.2,11.4-3.5v11c-3.5,1.8-7.5,2.7-11.9,2.7C135.3,244.8,129.6,242.7,125,238.5z"/>
			<path class="st0" d="M167.2,243.9v-43.3h11.1V214h6.4c5.3,0,9.5,1.4,12.6,4.2c3.2,2.8,4.8,6.4,4.8,10.8c0,4.4-1.5,8-4.7,10.8
				c-3.2,2.8-7.4,4.1-12.7,4.1H167.2z M178.4,234.4h5.7c4.2,0,6.8-2.2,6.8-5.6c0-3.5-2.6-5.8-6.8-5.8h-5.7V234.4z M206.6,243.9
				v-43.3h11.1v43.3H206.6z"/>
			<path class="st0" d="M232.2,243.9v-43.3h11.1V216h16.3v-15.4h11.1v43.3h-11.1v-18h-16.3v18H232.2z"/>
			<path class="st0" d="M306.8,244.8c-6.6,0-12-2.2-16.3-6.6s-6.5-9.7-6.5-16c0-6.3,2.2-11.6,6.5-16c4.3-4.4,9.8-6.6,16.3-6.6
				c6.6,0,12,2.2,16.3,6.6c4.3,4.4,6.5,9.7,6.5,16c0,6.3-2.2,11.6-6.5,16C318.8,242.6,313.4,244.8,306.8,244.8z M306.8,234.5
				c3.3,0,5.9-1.2,8.1-3.5c2.2-2.3,3.3-5.3,3.3-8.8c0-3.5-1.1-6.5-3.3-8.8c-2.2-2.3-4.8-3.5-8.1-3.5c-3.3,0-6,1.2-8.2,3.5
				c-2.2,2.3-3.2,5.3-3.2,8.8c0,3.5,1.1,6.5,3.2,8.8C300.8,233.3,303.5,234.5,306.8,234.5z"/>
			<path class="st0" d="M342.8,243.9v-43.3h11.1v16.5l14-16.5h13.4l-16.8,19.9l19.9,23.4h-13.6l-17-19.2v19.2H342.8z"/>
			<path class="st0" d="M396.5,229l-2.5-28.3h15l-2.5,28.3H396.5z M401.4,231.7c3.7,0,6.5,2.9,6.5,6.6c0,1.8-0.6,3.3-1.9,4.6
				c-1.2,1.3-2.8,1.9-4.6,1.9c-1.8,0-3.3-0.6-4.6-1.9c-1.2-1.3-1.9-2.8-1.9-4.6C394.9,234.6,397.8,231.7,401.4,231.7z"/>
		</g>
		<polygon class="st1" points="155.6,73.6 291.4,148.3 307.4,222.3 185.9,149.6 		"/>
	</g>
	<g>
		<circle class="st0" cx="155.6" cy="73.6" r="4.9"/>
		<circle class="st0" cx="185.9" cy="148.9" r="4.9"/>
		<circle class="st0" cx="291.4" cy="148.4" r="4.9"/>
		<circle class="st0" cx="307.4" cy="222.4" r="4.9"/>
	</g>
</g>
</svg>
