<?xml version="1.0" encoding="utf-8"?>
<!-- Generator: Adobe Illustrator 17.1.0, SVG Export Plug-In . SVG Version: 6.00 Build 0)  -->
<!DOCTYPE svg PUBLIC "-//W3C//DTD SVG 1.0//EN" "http://www.w3.org/TR/2001/REC-SVG-20010904/DTD/svg10.dtd">
<svg version="1.0" id="Layer_1" xmlns="http://www.w3.org/2000/svg" xmlns:xlink="http://www.w3.org/1999/xlink" x="0px" y="0px"
	 viewBox="0 0 530.7 296" style="enable-background:new 0 0 530.7 296;" xml:space="preserve">
<style type="text/css">
	.Drop_x0020_Shadow{fill:none;}
	.Round_x0020_Corners_x0020_2_x0020_pt{fill:#FFFFFF;stroke:#000000;stroke-miterlimit:10;}
	.Live_x0020_Reflect_x0020_X{fill:none;}
	.Bevel_x0020_Soft{fill:url(#SVGID_1_);}
	.Dusk{fill:#FFFFFF;}
	.Foliage_GS{fill:#FFDD00;}
	.Pompadour_GS{fill-rule:evenodd;clip-rule:evenodd;fill:#44ADE2;}
	.st0{fill:#383938;}
	.st1{fill:none;stroke:#383938;stroke-width:2.7677;stroke-miterlimit:10;}
	.st2{fill:#979797;}
	.st3{fill:#C79256;}
	.st4{opacity:0.83;}
	.st5{clip-path:url(#SVGID_3_);}
	.st6{clip-path:url(#SVGID_5_);}
	.st7{clip-path:url(#SVGID_7_);}
	.st8{clip-path:url(#SVGID_9_);}
	.st9{clip-path:url(#SVGID_11_);}
	.st10{clip-path:url(#SVGID_13_);}
	.st11{clip-path:url(#SVGID_15_);}
	.st12{opacity:0.9;}
	.st13{fill:#010101;}
</style>
<linearGradient id="SVGID_1_" gradientUnits="userSpaceOnUse" x1="23.3333" y1="-285" x2="24.0404" y2="-284.2929">
	<stop  offset="0" style="stop-color:#DEDFE3"/>
	<stop  offset="0.1738" style="stop-color:#D8D9DD"/>
	<stop  offset="0.352" style="stop-color:#C9CACD"/>
	<stop  offset="0.5323" style="stop-color:#B4B5B8"/>
	<stop  offset="0.7139" style="stop-color:#989A9C"/>
	<stop  offset="0.8949" style="stop-color:#797C7E"/>
	<stop  offset="1" style="stop-color:#656B6C"/>
</linearGradient>
<g>
	<g>
		<path class="st0" d="M134,180.6c0,2.8-0.6,5.4-1.7,7.6c-1.1,2.2-2.7,4-4.6,5.4c-1.9,1.4-4.1,2.5-6.4,3.2c-2.3,0.7-4.8,1-7.4,1
			h-6.1v16.5c0,0.9,0.1,1.7,0.4,2.4c0.3,0.7,0.9,1.2,1.8,1.6c0.5,0.2,1.3,0.3,2.4,0.5c1.2,0.2,2.2,0.2,3.2,0.3v2.7H92.2V219
			c0.6-0.1,1.5-0.1,2.7-0.3c1.2-0.1,2-0.3,2.4-0.5c0.8-0.3,1.3-0.8,1.7-1.5c0.3-0.6,0.5-1.5,0.5-2.5v-39.4c0-0.9-0.1-1.7-0.4-2.4
			c-0.3-0.7-0.9-1.3-1.8-1.6c-1-0.3-1.9-0.6-2.9-0.7c-1-0.1-1.8-0.2-2.5-0.3v-2.7h24.9c5.1,0,9.2,1.2,12.4,3.7
			C132.4,173.3,134,176.5,134,180.6z M122.3,189.9c0.9-1.2,1.4-2.5,1.7-3.8c0.3-1.3,0.4-2.5,0.4-3.6c0-1.5-0.2-2.9-0.5-4.5
			c-0.3-1.5-0.9-2.8-1.8-4c-0.9-1.2-2.1-2.1-3.5-2.8c-1.5-0.7-3.3-1-5.5-1h-5.4v24.1h3.9c2.8,0,5-0.4,6.8-1.3
			C120.1,192.3,121.4,191.2,122.3,189.9z"/>
		<path class="st0" d="M196,205.7l-1,16.1h-45.3V219c0.8-0.1,1.8-0.2,3.1-0.3c1.3-0.2,2.1-0.3,2.5-0.5c0.8-0.4,1.4-0.9,1.7-1.5
			c0.3-0.6,0.5-1.4,0.5-2.3v-39.2c0-0.8-0.1-1.6-0.4-2.3c-0.3-0.7-0.9-1.2-1.8-1.6c-0.7-0.3-1.6-0.6-2.8-0.9
			c-1.2-0.3-2.1-0.4-2.8-0.5v-2.7h42.2v13.2H189c-0.5-1.9-1.6-4-3.3-6.2c-1.7-2.2-3.3-3.4-4.9-3.6c-0.8-0.1-1.7-0.2-2.8-0.2
			c-1.1-0.1-2.4-0.1-3.8-0.1h-8.6v21.7h6.2c2,0,3.4-0.2,4.3-0.6c0.9-0.4,1.7-1,2.4-1.9c0.6-0.7,1-1.7,1.4-3c0.4-1.2,0.7-2.4,0.8-3.5
			h2.9v21.4h-2.9c-0.1-1.2-0.4-2.5-0.8-3.9c-0.4-1.4-0.9-2.4-1.4-3c-0.8-1-1.7-1.7-2.7-2c-1-0.3-2.4-0.5-4-0.5h-6.2v16.4
			c0,1.6,0.1,2.9,0.3,3.9c0.2,0.9,0.7,1.7,1.3,2.2c0.7,0.5,1.6,0.8,2.7,0.9c1.2,0.1,2.8,0.2,4.9,0.2c0.8,0,2,0,3.3,0
			c1.4,0,2.6-0.1,3.5-0.2c1-0.1,2-0.3,3-0.6c1-0.3,1.8-0.6,2.2-1.1c1.2-1.2,2.4-3.1,3.7-5.6c1.3-2.5,2.1-4.3,2.5-5.5H196z"/>
		<path class="st0" d="M286.1,221.7h-15c-1-3-2.1-5.7-3.1-8.1c-1-2.5-2-4.8-3.1-7.1c-1.7-3.8-3.4-6.4-5.1-7.8
			c-1.7-1.4-4.1-2.1-7-2.1h-2.4V214c0,0.8,0.2,1.6,0.5,2.3c0.3,0.7,0.9,1.2,1.8,1.6c0.4,0.2,1.2,0.4,2.3,0.7c1.1,0.3,2,0.4,2.8,0.4
			v2.7h-22.7V219c0.6-0.1,1.4-0.1,2.6-0.2c1.1-0.1,1.9-0.3,2.4-0.5c0.8-0.3,1.3-0.8,1.7-1.5c0.3-0.7,0.5-1.4,0.5-2.4v-17.9h-2.3
			c-3,0-5.3,0.6-6.9,1.9c-1.7,1.3-3.4,3.9-5.2,8c-1,2.2-2.1,4.7-3.2,7.5c-1.1,2.8-2.1,5.4-3,7.8h-14.9V219c0.6-0.1,1.2-0.1,2-0.2
			c0.7-0.1,1.4-0.2,2.2-0.3c1.1-0.2,2-0.6,2.7-1.3c0.7-0.7,1.4-1.7,2-3.2c0.6-1.3,1.3-2.8,2.1-4.6c0.8-1.8,1.6-3.5,2.4-5.1
			c1.3-2.9,2.9-5.2,4.8-6.9c1.9-1.7,4.1-2.9,6.8-3.7v-0.5c-1-0.9-1.9-1.9-2.7-2.9c-0.7-1-1.4-2.1-2-3.2c-0.5-1.1-1-2.1-1.3-3.2
			c-0.4-1.1-0.7-2.2-1.1-3.3c-0.3-0.9-0.6-1.9-0.9-3c-0.3-1.1-0.7-2.1-1-2.8c-0.4-0.8-0.8-1.6-1.3-2.3c-0.5-0.7-1.1-1.3-1.8-1.7
			c-0.3,0.6-0.6,1.2-1.1,2c-0.4,0.8-0.8,1.3-1.2,1.7c-0.5,0.5-1.1,0.9-1.6,1.2c-0.5,0.3-1.3,0.4-2.3,0.4c-1.4,0-2.4-0.5-3-1.4
			c-0.6-0.9-1-1.9-1-3c0-0.7,0.1-1.3,0.4-1.8c0.2-0.6,0.6-1.1,1.2-1.6c0.5-0.5,1.2-0.8,2-1.1s1.8-0.4,2.9-0.4c1.6,0,3.1,0.3,4.4,0.9
			c1.3,0.6,2.5,1.4,3.5,2.4c1.4,1.4,2.5,3.1,3.3,5.1c0.8,2,1.6,3.9,2.1,5.8c0.7,2.3,1.3,4.2,1.9,5.8c0.5,1.6,1.5,3,2.8,4.3
			c0.8,0.8,1.7,1.4,2.6,1.8c0.9,0.4,1.8,0.6,2.8,0.6h3.1v-18.3c0-0.9-0.1-1.6-0.4-2.3c-0.3-0.6-0.9-1.2-1.8-1.6
			c-0.7-0.3-1.5-0.6-2.5-0.9c-0.9-0.3-1.8-0.4-2.5-0.5v-2.7h22.7v2.7c-0.7,0-1.6,0.1-2.7,0.3c-1.1,0.2-1.9,0.4-2.4,0.6
			c-0.9,0.3-1.5,0.8-1.8,1.5c-0.3,0.7-0.5,1.5-0.5,2.3v18.7h3.1c0.9,0,1.9-0.2,2.8-0.6c0.9-0.4,1.8-1,2.5-1.8c1.1-1.1,2-2.6,2.7-4.3
			c0.7-1.7,1.4-3.6,2-5.8c0.6-1.9,1.3-3.9,2.2-5.9s2-3.7,3.3-5.1c1-1,2.2-1.8,3.5-2.4c1.4-0.6,2.8-0.9,4.4-0.9
			c1.1,0,2.1,0.1,2.9,0.4c0.8,0.3,1.5,0.6,2.1,1.1c0.5,0.4,0.9,0.9,1.2,1.5c0.3,0.6,0.4,1.2,0.4,1.9c0,0.6-0.1,1.1-0.3,1.7
			c-0.2,0.5-0.4,1-0.7,1.3c-0.4,0.4-0.8,0.8-1.2,1c-0.4,0.2-1.1,0.4-1.8,0.4c-0.8,0-1.6-0.1-2.2-0.4c-0.6-0.3-1.2-0.7-1.6-1.2
			c-0.5-0.5-0.9-1.1-1.3-1.7c-0.4-0.7-0.7-1.3-1.1-2c-0.7,0.5-1.3,1-1.8,1.7c-0.5,0.7-0.9,1.5-1.3,2.3c-0.3,0.7-0.7,1.7-1,2.8
			c-0.3,1.2-0.6,2.1-0.9,2.9c-0.3,0.8-0.6,1.9-1,3.2c-0.4,1.3-0.9,2.4-1.3,3.3c-0.5,1.1-1.2,2.2-1.9,3.2c-0.8,1.1-1.7,2.1-2.7,3v0.5
			c2.7,0.8,5,2,6.9,3.8c1.9,1.7,3.5,4,4.7,6.7c0.7,1.6,1.5,3.3,2.4,5.1c0.9,1.8,1.6,3.3,2.1,4.6c0.6,1.3,1.3,2.4,2,3.1
			c0.7,0.7,1.4,1.2,2.3,1.3c0.8,0.2,1.6,0.3,2.4,0.4c0.8,0.1,1.5,0.2,2.1,0.2V221.7z"/>
		<path class="st0" d="M355.5,221.7h-22.6V219c0.6-0.1,1.5-0.1,2.7-0.2c1.2-0.1,2-0.3,2.4-0.5c0.8-0.3,1.3-0.8,1.7-1.4
			c0.4-0.6,0.5-1.4,0.5-2.4v-34l-26.4,32.9v0.9c0,0.9,0.1,1.6,0.4,2.2c0.3,0.6,0.9,1.1,1.8,1.5c0.4,0.2,1.2,0.5,2.4,0.7
			c1.2,0.2,2.1,0.4,2.8,0.4v2.7h-22.6V219c0.6-0.1,1.5-0.1,2.7-0.2c1.2-0.1,2-0.3,2.4-0.5c0.8-0.3,1.3-0.8,1.7-1.4
			c0.4-0.6,0.5-1.4,0.5-2.4v-39.4c0-0.8-0.2-1.6-0.5-2.3c-0.3-0.7-0.9-1.2-1.7-1.6c-0.7-0.3-1.5-0.6-2.5-0.9c-1-0.3-1.8-0.4-2.6-0.5
			v-2.7h22.6v2.7c-0.7,0-1.6,0.1-2.7,0.3c-1.1,0.2-1.9,0.4-2.4,0.6c-0.9,0.3-1.5,0.8-1.8,1.5c-0.3,0.7-0.4,1.5-0.4,2.3v33.2
			l26.4-32.9c0-0.9-0.2-1.7-0.5-2.3c-0.3-0.6-0.9-1.1-1.7-1.5c-0.6-0.3-1.5-0.6-2.7-0.9c-1.1-0.3-2-0.4-2.7-0.5v-2.7h22.6v2.7
			c-0.7,0-1.6,0.1-2.6,0.3c-1,0.2-1.8,0.4-2.3,0.6c-0.9,0.3-1.5,0.8-1.8,1.5c-0.3,0.7-0.4,1.5-0.4,2.3V214c0,0.9,0.1,1.7,0.4,2.3
			c0.3,0.6,0.9,1.2,1.8,1.6c0.4,0.2,1.2,0.5,2.3,0.7c1.1,0.2,2,0.4,2.6,0.4V221.7z"/>
		<path class="st0" d="M438.7,221.7h-24.1V219c0.9,0,2-0.1,3.4-0.3c1.4-0.2,2.3-0.4,2.8-0.7c0.8-0.5,1.4-1,1.8-1.7
			c0.4-0.6,0.6-1.4,0.6-2.4v-39.7h-0.6l-18.6,46.5H402l-17.7-47.5h-0.5V206c0,3.2,0.2,5.6,0.6,7.2c0.4,1.6,1,2.8,1.8,3.5
			c0.6,0.5,1.7,1.1,3.5,1.5c1.8,0.5,2.9,0.7,3.5,0.8v2.7h-22V219c1.2-0.1,2.4-0.3,3.6-0.6c1.3-0.3,2.3-0.7,2.9-1.3
			c0.9-0.7,1.5-1.8,1.8-3.3c0.3-1.5,0.5-4,0.5-7.5v-27.9c0-1.6-0.2-2.9-0.6-4c-0.4-1-0.9-1.9-1.7-2.5c-0.8-0.7-1.8-1.2-2.9-1.5
			c-1.2-0.3-2.3-0.5-3.4-0.6v-2.7h18.6l15.6,41l13.3-34.3c0.5-1.3,0.9-2.6,1.2-3.9c0.3-1.4,0.5-2.3,0.6-2.8h17.8v2.7
			c-0.7,0-1.6,0.1-2.8,0.3c-1.1,0.2-1.9,0.4-2.4,0.6c-0.9,0.3-1.5,0.8-1.8,1.5c-0.3,0.7-0.5,1.5-0.5,2.3V214c0,0.9,0.2,1.7,0.5,2.3
			c0.3,0.6,0.9,1.2,1.8,1.6c0.5,0.3,1.3,0.5,2.5,0.7c1.2,0.2,2.1,0.3,2.8,0.4V221.7z"/>
	</g>
	<g>
		<g>
			<path class="st2" d="M103.7,261.2l-4.6-5.4l-1.2,1.4v4.1h-1.5v-12.1h1.5v6.3l5.4-6.3h1.9l-5,5.8l5.5,6.3H103.7z"/>
			<path class="st2" d="M108.1,255.2c0-3.6,2.4-6.3,6-6.3c3.6,0,6,2.7,6,6.3c0,3.6-2.4,6.3-6,6.3
				C110.5,261.5,108.1,258.8,108.1,255.2z M118.5,255.2c0-2.8-1.7-4.9-4.4-4.9c-2.7,0-4.4,2.1-4.4,4.9c0,2.8,1.7,4.9,4.4,4.9
				C116.8,260.1,118.5,258,118.5,255.2z"/>
			<path class="st2" d="M127.2,261.2v-10.8h-3.8v-1.3h9.2v1.3h-3.8v10.8H127.2z"/>
			<path class="st2" d="M135.8,255.2c0-3.6,2.4-6.3,6-6.3c3.6,0,6,2.7,6,6.3c0,3.6-2.4,6.3-6,6.3
				C138.3,261.5,135.8,258.8,135.8,255.2z M146.3,255.2c0-2.8-1.7-4.9-4.4-4.9c-2.7,0-4.4,2.1-4.4,4.9c0,2.8,1.7,4.9,4.4,4.9
				C144.6,260.1,146.3,258,146.3,255.2z"/>
			<path class="st2" d="M152.5,261.2v-12.1h4.9c2.4,0,3.8,1.7,3.8,3.6c0,2-1.4,3.6-3.8,3.6H154v4.8H152.5z M159.6,252.8
				c0-1.4-1-2.3-2.4-2.3H154v4.6h3.2C158.6,255.1,159.6,254.1,159.6,252.8z"/>
			<path class="st2" d="M166.9,249.1v4.8h3.4c2.4,0,3.8,1.7,3.8,3.6c0,2-1.4,3.6-3.8,3.6h-4.9v-12.1H166.9z M166.9,255.3v4.6h3.2
				c1.4,0,2.4-0.9,2.4-2.3c0-1.4-1-2.3-2.4-2.3H166.9z M175.4,261.2v-12.1h1.5v12.1H175.4z"/>
			<path class="st2" d="M182,261.2v-12.1h1.5v9.5l7-9.5h1.5v12.1h-1.5v-9.7l-7.1,9.7H182z M187,248.4c-1.3,0-2.4-0.6-3.2-1.6
				l0.7-0.6c0.6,0.8,1.5,1.3,2.5,1.3c1.1,0,1.9-0.5,2.5-1.3l0.7,0.6C189.4,247.8,188.3,248.4,187,248.4z"/>
			<path class="st2" d="M202.9,260.5l0.6-1.2c0.4,0.5,1,0.8,1.7,0.8c1,0,1.4-0.5,2-1.7l0.2-0.4l-4.6-8.8h1.7l3.8,7.5l3.8-7.5h1.7
				l-5.3,10c-0.8,1.4-1.6,2.4-3.3,2.4C204.2,261.5,203.3,261,202.9,260.5z"/>
			<path class="st2" d="M216.8,255.2c0-3.7,2.7-6.3,6.2-6.3c2.1,0,3.6,1,4.6,2.4l-1.3,0.7c-0.7-1-1.9-1.8-3.3-1.8
				c-2.6,0-4.7,2-4.7,4.9c0,2.9,2,4.9,4.7,4.9c1.4,0,2.6-0.7,3.3-1.8l1.3,0.7c-1,1.4-2.5,2.4-4.6,2.4
				C219.5,261.5,216.8,258.9,216.8,255.2z"/>
			<path class="st2" d="M234.8,261.2v-10.8H231v-1.3h9.2v1.3h-3.8v10.8H234.8z"/>
			<path class="st2" d="M251.8,261.2l-1.1-2.7h-6l-1.1,2.7h-1.7l4.9-12.1h1.9l4.9,12.1H251.8z M247.7,250.7l-2.6,6.5h5.1
				L247.7,250.7z"/>
			<path class="st2" d="M266,261.2v-5.6h-7.1v5.6h-1.5v-12.1h1.5v5.2h7.1v-5.2h1.5v12.1H266z"/>
			<path class="st2" d="M281.2,261.2l-1.1-2.7h-6l-1.1,2.7h-1.7l4.9-12.1h1.9l4.9,12.1H281.2z M277.1,250.7l-2.6,6.5h5.1
				L277.1,250.7z"/>
			<path class="st2" d="M286.8,261.2v-12.1h5.4c2.1,0,3.4,1.3,3.4,3.1c0,1.5-1,2.5-2.1,2.8c1.3,0.2,2.4,1.5,2.4,3
				c0,1.9-1.3,3.3-3.5,3.3H286.8z M294,252.4c0-1.1-0.7-2-2.1-2h-3.6v3.9h3.6C293.3,254.4,294,253.5,294,252.4z M294.2,257.8
				c0-1.1-0.8-2.1-2.3-2.1h-3.7v4.2h3.7C293.4,259.9,294.2,259.1,294.2,257.8z"/>
			<path class="st2" d="M299.6,260.1c1.5,0,2.3-0.8,2.8-4.9l0.7-6.1h7.4v12.1H309v-10.8h-4.6l-0.6,4.8c-0.7,5.3-2.1,6.1-4.3,6.1
				V260.1z"/>
			<path class="st2" d="M315.6,261.2v-12.1h1.5v9.5l7-9.5h1.5v12.1h-1.5v-9.7l-7.1,9.7H315.6z"/>
			<path class="st2" d="M330.7,261.2v-12.1h5.4c2.1,0,3.4,1.3,3.4,3.1c0,1.5-1,2.5-2.1,2.8c1.3,0.2,2.4,1.5,2.4,3
				c0,1.9-1.3,3.3-3.5,3.3H330.7z M337.9,252.4c0-1.1-0.7-2-2.1-2h-3.6v3.9h3.6C337.2,254.4,337.9,253.5,337.9,252.4z M338.2,257.8
				c0-1.1-0.8-2.1-2.3-2.1h-3.7v4.2h3.7C337.3,259.9,338.2,259.1,338.2,257.8z"/>
			<path class="st2" d="M353,261.2l-1.1-2.7h-6l-1.1,2.7h-1.7l4.9-12.1h1.9l4.9,12.1H353z M349,250.7l-2.6,6.5h5.1L349,250.7z"/>
			<path class="st2" d="M358.6,261.2v-12.1h7.9v1.3h-6.4v3.9h6.3v1.3h-6.3v4.2h6.4v1.3H358.6z"/>
			<path class="st2" d="M385.7,249.1v12.1h-14.5v-12.1h1.5v10.8h5v-10.8h1.5v10.8h5v-10.8H385.7z"/>
			<path class="st2" d="M392.3,249.1v4.8h3.4c2.4,0,3.8,1.7,3.8,3.6c0,2-1.4,3.6-3.8,3.6h-4.9v-12.1H392.3z M392.3,255.3v4.6h3.2
				c1.4,0,2.4-0.9,2.4-2.3c0-1.4-1-2.3-2.4-2.3H392.3z"/>
			<path class="st2" d="M413.7,261.2v-10.8h-3.8v-1.3h9.2v1.3h-3.8v10.8H413.7z"/>
			<path class="st2" d="M424.8,249.1v4.8h3.4c2.4,0,3.8,1.7,3.8,3.6c0,2-1.4,3.6-3.8,3.6h-4.9v-12.1H424.8z M424.8,255.3v4.6h3.2
				c1.4,0,2.4-0.9,2.4-2.3c0-1.4-1-2.3-2.4-2.3H424.8z M433.3,261.2v-12.1h1.5v12.1H433.3z"/>
		</g>
	</g>
	<g>
		<polygon class="st3" points="258.3,34.5 266.6,34.5 260.1,122.5 251.1,122.5 		"/>
		<polygon class="st3" points="278.7,34.5 286.9,34.5 280.5,122.5 271.5,122.5 		"/>
		<rect x="241.1" y="61" class="st3" width="58.5" height="8.3"/>
		<rect x="241.1" y="85.1" class="st3" width="58.5" height="8.3"/>
	</g>
</g>
</svg>
