<?xml version="1.0" encoding="utf-8"?>
<!-- Generator: Adobe Illustrator 17.1.0, SVG Export Plug-In . SVG Version: 6.00 Build 0)  -->
<!DOCTYPE svg PUBLIC "-//W3C//DTD SVG 1.0//EN" "http://www.w3.org/TR/2001/REC-SVG-20010904/DTD/svg10.dtd">
<svg version="1.0" id="Layer_1" xmlns="http://www.w3.org/2000/svg" xmlns:xlink="http://www.w3.org/1999/xlink" x="0px" y="0px"
	 viewBox="0 0 146.5 146.3" style="enable-background:new 0 0 146.5 146.3;" xml:space="preserve">
<style type="text/css">
	.Drop_x0020_Shadow{fill:none;}
	.Round_x0020_Corners_x0020_2_x0020_pt{fill:#FFFFFF;stroke:#000000;stroke-miterlimit:10;}
	.Live_x0020_Reflect_x0020_X{fill:none;}
	.Bevel_x0020_Soft{fill:url(#SVGID_1_);}
	.Dusk{fill:#FFFFFF;}
	.Foliage_GS{fill:#FFDD00;}
	.Pompadour_GS{fill-rule:evenodd;clip-rule:evenodd;fill:#44ADE2;}
	.st0{fill:#383938;}
</style>
<linearGradient id="SVGID_1_" gradientUnits="userSpaceOnUse" x1="-224.6667" y1="-348.1667" x2="-223.9596" y2="-347.4596">
	<stop  offset="0" style="stop-color:#DEDFE3"/>
	<stop  offset="0.1738" style="stop-color:#D8D9DD"/>
	<stop  offset="0.352" style="stop-color:#C9CACD"/>
	<stop  offset="0.5323" style="stop-color:#B4B5B8"/>
	<stop  offset="0.7139" style="stop-color:#989A9C"/>
	<stop  offset="0.8949" style="stop-color:#797C7E"/>
	<stop  offset="1" style="stop-color:#656B6C"/>
</linearGradient>
<g>
	<g>
		<path class="st0" d="M73.2,0.7c-40,0-72.5,32.5-72.5,72.5c0,40,32.5,72.5,72.5,72.5c40,0,72.5-32.5,72.5-72.5
			C145.7,33.2,113.2,0.7,73.2,0.7z M73.2,144.1c-39.1,0-71-31.8-71-71s31.8-71,71-71c39.1,0,71,31.8,71,71S112.4,144.1,73.2,144.1z"
			/>
		<path class="st0" d="M119.2,61.6L108.5,51l1.1-1.1c1-1,1-2.5,0-3.5l-8.9-8.9c-0.9-0.9-2.6-0.9-3.5,0l-1.1,1.1L88.6,31H74.7v13.9
			l7.5,7.5L71.8,62.9L46.5,37.5c-0.9-0.9-2.6-0.9-3.5,0l-8.9,8.9c-1,1-1,2.5,0,3.5l25.4,25.4l-27.2,27.2c-1,1-1,2.5,0,3.5l8.9,8.9
			c0.5,0.5,1.1,0.7,1.8,0.7c0.7,0,1.3-0.3,1.8-0.7l27.2-27.2l27.2,27.2c0.5,0.5,1.1,0.7,1.8,0.7c0.7,0,1.3-0.3,1.8-0.7l8.9-8.9
			c1-1,1-2.5,0-3.5L84.2,75.2l10.4-10.4l-0.4-0.4l11.1,11.1L119.2,61.6z M98.3,38.5c0.2-0.2,0.4-0.3,0.7-0.3c0.3,0,0.5,0.1,0.7,0.3
			l8.9,8.9c0.2,0.2,0.3,0.4,0.3,0.7s-0.1,0.5-0.3,0.7l-1.1,1.1L97.2,39.6L98.3,38.5z M76.2,32.5H88l29.1,29.1l-11.7,11.7L76.2,44.3
			V32.5z M35.1,48.8c-0.2-0.2-0.3-0.4-0.3-0.7s0.1-0.5,0.3-0.7l8.9-8.9c0.2-0.2,0.4-0.3,0.7-0.3c0.3,0,0.5,0.1,0.7,0.3l1.8,1.8
			L41.4,46l1.1,1.1l5.7-5.7l3.9,3.9l-2.6,2.6l1.1,1.1l2.6-2.6l3.9,3.9l-5.7,5.7l1.1,1.1l5.7-5.7l3.9,3.9l-2.6,2.6l1.1,1.1l2.6-2.6
			l3.9,3.9l-5.7,5.7l1.1,1.1l5.7-5.7l2.5,2.5L60.5,74.2L35.1,48.8z M87.2,80.4l-5.7,5.7l1.1,1.1l5.7-5.7l3.9,3.9L89.6,88l1.1,1.1
			l2.6-2.6l3.9,3.9l-5.7,5.7l1.1,1.1l5.7-5.7l3.9,3.9L99.6,98l1.1,1.1l2.6-2.6l3.9,3.9l-5.7,5.7l1.1,1.1l5.7-5.7l2.1,2.1
			c0.4,0.4,0.4,1,0,1.4l-8.9,8.9c-0.4,0.4-1,0.4-1.4,0L72.9,86.6l10.3-10.3L87.2,80.4z M43.5,113.8c-0.4,0.4-1,0.4-1.4,0l-8.9-8.9
			c-0.4-0.4-0.4-1,0-1.4l50.1-50.1l10.3,10.3L43.5,113.8z"/>
	</g>
</g>
</svg>
